<?xml version="1.0" standalone="no"?>
<!DOCTYPE svg PUBLIC "-//W3C//DTD SVG 20010904//EN"
 "http://www.w3.org/TR/2001/REC-SVG-20010904/DTD/svg10.dtd">
<svg version="1.0" xmlns="http://www.w3.org/2000/svg"
 width="512.000000pt" height="512.000000pt" viewBox="0 0 512.000000 512.000000"
 preserveAspectRatio="xMidYMid meet">

<g transform="translate(0.000000,512.000000) scale(0.100000,-0.100000)"
fill="#D9E2F3" stroke="none">
<path d="M0 2560 l0 -2560 2560 0 2560 0 0 2560 0 2560 -2560 0 -2560 0 0
-2560z m3434 692 c82 -45 126 -121 126 -219 -1 -108 1 -106 -538 -646 -539
-541 -550 -550 -652 -551 -108 0 -109 0 -453 343 -214 213 -324 330 -338 359
-14 27 -21 63 -21 100 -1 144 104 252 246 252 103 0 136 -23 361 -249 l200
-201 410 409 c409 407 417 414 500 435 38 9 110 -6 159 -32z"/>
</g>
</svg>
